<svg xmlns="http://www.w3.org/2000/svg" xmlns:xlink="http://www.w3.org/1999/xlink" preserveAspectRatio="xMidYMid" width="753.53" height="753.942" viewBox="0 0 753.53 753.942">
  <defs>
    <style>
      .cls-1 {
        fill: #ed145b;
        fill-rule: evenodd;
      }
    </style>
  </defs>
  <path d="M376.768,678.546 C543.232,678.546 678.178,543.526 678.178,376.969 C678.178,210.413 543.232,75.392 376.768,75.392 L376.768,75.392 C210.304,75.392 75.358,210.413 75.358,376.969 C75.358,543.526 210.304,678.546 376.768,678.546 L376.768,678.546 L376.768,678.546 ZM376.768,753.942 C168.682,753.942 0.004,585.171 0.004,376.969 C0.004,168.768 168.682,-0.003 376.768,-0.003 C584.854,-0.003 753.531,168.768 753.531,376.969 C753.531,585.171 584.854,753.942 376.768,753.942 L376.768,753.942 ZM376.768,527.758 C460.000,527.758 527.473,460.248 527.473,376.969 C527.473,293.690 460.000,226.180 376.768,226.180 L376.768,226.180 C293.535,226.180 226.062,293.690 226.062,376.969 C226.062,460.248 293.535,527.758 376.768,527.758 L376.768,527.758 L376.768,527.758 ZM376.768,603.152 C251.919,603.152 150.710,501.887 150.710,376.969 C150.710,252.052 251.919,150.786 376.768,150.786 L376.768,150.786 C501.616,150.786 602.826,252.052 602.826,376.969 C602.826,501.887 501.616,603.152 376.768,603.152 L376.768,603.152 L376.768,603.152 ZM376.768,452.363 C335.152,452.363 301.416,418.608 301.416,376.969 C301.416,335.330 335.152,301.575 376.768,301.575 L376.768,301.575 C418.384,301.575 452.120,335.330 452.120,376.969 C452.120,418.608 418.384,452.363 376.768,452.363 L376.768,452.363 L376.768,452.363 Z" class="cls-1"/>
</svg>
