<svg xmlns="http://www.w3.org/2000/svg" width="512" height="512" viewBox="0 0 512 512">
    <path fill="currentColor"
          d="m37.435 218.2l7.266-9.271l92.304-.044l-5.943 9.27zm83.718 22.805l3.061-9.27l-116.949.08L0 241.085zm-3.361 22.887l.884-9.27l-53.197.043l-5.163 9.27zm339.301 72.6c-51.18 28.193-121.104 16.253-139.798-44.876c-11.048 21.741-29.087 39.56-50.584 49.721c-50.933 24.075-120.085 3.08-128.979-62.896c-6.513-63.238 44.669-102.314 74.925-112.18c48.085-14.979 95.508 2.622 111.907 46.427l-51.65 13.538c-5.488-15.271-35.313-26.268-58.239-9.693c-36.057 22.247-35.391 78.232 8.173 86.545c22.618 2.9 37.81-8.276 49.2-25.466l-56.087.12l18.021-38.86h84.057c36.406-102.707 178.391-98.21 192.821-5.92c5.129 32.802-6.069 77.264-53.767 103.54M410.447 209.42c-38.861 8.362-48.547 42.69-42.548 64.684c6.383 23.406 31.11 38.754 62.482 24.076c50.28-23.523 37.1-101.032-19.934-88.76"/>
</svg>