<svg xmlns="http://www.w3.org/2000/svg" width="16" height="16" viewBox="0 0 16 16">
    <g fill="currentColor" fill-rule="evenodd" clip-rule="evenodd">
        <path d="M12.375 4.5c.81-.029.904-.007 1.074.052v-.008c.67.235 1.14.93 1.424 2.107c.114.47.152 1.036.11 1.641c-.06.888-.177 1.397-.451 1.962c-.147.302-.207.388-.415.601c-.264.27-.536.428-.866.505c-.125.03-.816.044-2.74.057l-2.574.018v.399l3.37.023l.018.069c.029.11.02 1.178-.012 1.492c-.05.479-.149.732-.383.986c-.168.182-.53.367-.889.454c-.516.126-.75.142-2.09.142c-1.354 0-1.697-.024-2.087-.144c-.534-.163-1.081-.667-1.244-1.144c-.104-.309-.12-.625-.12-2.36c0-1.84-.038-2.072.13-2.388c.177-.335.206-.319.614-.473c.17-.063.575-.047 2.319-.053c1.88-.013 3.132.022 3.45-.078c.472-.148.977-.358 1.187-.787c.199-.408.16-.673.175-1.76zm-2.258 8.293a.69.69 0 0 0-.608.048c-.201.136-.27.27-.27.528c0 .198.01.237.092.356a.63.63 0 0 0 .824.204c.464-.242.442-.908-.037-1.136"/>
        <path d="M8.048 1c1.355 0 1.698.024 2.09.144c.533.164 1.079.667 1.241 1.144c.105.309.122.625.121 2.36c0 1.84-.007 1.92-.175 2.237c-.177.335-.51.476-.916.63c-.17.063-.227.042-1.971.048c-1.88.012-3.447-.009-3.861.14c-.473.148-.649.31-.858.738c-.174.357-.104.929-.094 1.794V11.5c-.81.029-.904.007-1.074-.052v.008c-.67-.235-1.14-.93-1.425-2.107c-.113-.47-.151-1.036-.11-1.641c.06-.888.178-1.397.453-1.962c.147-.302.206-.388.415-.601a1.7 1.7 0 0 1 .864-.505c.125-.03.816-.044 2.742-.057l2.573-.018v-.399l-3.37-.023l-.018-.069c-.03-.11-.02-1.177.012-1.492c.05-.478.148-.733.383-.986c.168-.182.53-.367.888-.454c.517-.126.75-.142 2.09-.142m-1.38 1.275a.63.63 0 0 0-.823-.204c-.464.242-.443.908.037 1.136a.69.69 0 0 0 .609-.048c.201-.136.27-.27.27-.528c0-.198-.01-.237-.093-.356"/>
    </g>
</svg>